<?xml version="1.0" encoding="utf-8"?>
<svg id="master-artboard" viewBox="0 0 200 200" version="1.1" xmlns="http://www.w3.org/2000/svg" x="0px" y="0px" style="enable-background:new 0 0 1400 980;" width="200px" height="200px"><rect id="ee-background" x="0" y="0" width="200" height="200" style="fill: white; fill-opacity: 0; pointer-events: none;"/>


<path class="st1" d="M968.2,918.4c-56.9,29.5-164.3-23.2-223.2,0V809.9c59-23.2,166.4,29.5,223.2,0V918.4z" style="fill: none; stroke: rgb(255, 255, 255); stroke-width: 5; stroke-linecap: round; stroke-linejoin: round; stroke-miterlimit: 10;" transform="matrix(0.720210611820221, 0, 0, 0.720210611820221, -518.9718983552474, -512.8599243164062)"/><path class="st1" d="M745,789.4c59-23.2,166.4,29.5,223.2,0" style="fill: none; stroke: rgb(255, 255, 255); stroke-width: 5; stroke-linecap: round; stroke-linejoin: round; stroke-miterlimit: 10;" transform="matrix(0.720210611820221, 0, 0, 0.720210611820221, -518.9718983552474, -512.8599243164062)"/><path class="st1" d="M745,768.8c59-23.2,166.4,29.5,223.2,0" style="fill: none; stroke: rgb(255, 255, 255); stroke-width: 5; stroke-linecap: round; stroke-linejoin: round; stroke-miterlimit: 10;" transform="matrix(0.720210611820221, 0, 0, 0.720210611820221, -518.9718983552474, -512.8599243164062)"/><path class="st1" d="M896.1,865.7c0,21.8-17.7,39.5-39.5,39.5c-21.8,0-39.5-17.7-39.5-39.5c0-21.8,17.7-39.5,39.5-39.5&#10;&#9;&#9;&#9;C878.4,826.3,896.1,843.9,896.1,865.7z" style="fill: none; stroke: rgb(255, 255, 255); stroke-width: 5; stroke-linecap: round; stroke-linejoin: round; stroke-miterlimit: 10;" transform="matrix(0.720210611820221, 0, 0, 0.720210611820221, -518.9718983552474, -512.8599243164062)"/><path d="M854.1,895.8v-7.4c-4.2-0.1-8.6-1.4-11.2-3.2l1.8-4.9c2.6,1.8,6.5,3.2,10.6,3.2c5.2,0,8.7-3,8.7-7.2c0-4-2.9-6.5-8.3-8.7&#10;&#9;&#9;&#9;&#9;c-7.5-2.9-12.1-6.3-12.1-12.7c0-6.1,4.3-10.7,11.1-11.8v-7.4h4.5v7.1c4.4,0.1,7.4,1.3,9.5,2.6l-1.8,4.8c-1.5-0.9-4.5-2.5-9.2-2.5&#10;&#9;&#9;&#9;&#9;c-5.6,0-7.8,3.4-7.8,6.3c0,3.8,2.7,5.7,9.1,8.4c7.5,3.1,11.4,6.9,11.4,13.4c0,5.8-4,11.2-11.6,12.5v7.6H854.1z" transform="matrix(0.720210611820221, 0, 0, 0.720210611820221, -518.9718983552474, -512.8599243164062)" style="stroke: rgb(255, 255, 255); fill: rgb(255, 255, 255);"/><path d="M 786.799988 859.599976 A 6.5 6.5 0 0 1 780.299988 866.099976 A 6.5 6.5 0 0 1 773.799988 859.599976 A 6.5 6.5 0 0 1 780.299988 853.099976 A 6.5 6.5 0 0 1 786.799988 859.599976 Z" class="st1" style="fill: none; stroke: rgb(255, 255, 255); stroke-width: 5; stroke-linecap: round; stroke-linejoin: round; stroke-miterlimit: 10;" transform="matrix(0.720210611820221, 0, 0, 0.720210611820221, -518.9718983552474, -512.8599243164062)"/><path d="M 931.599976 872.599976 A 6.5 6.5 0 0 1 925.099976 879.099976 A 6.5 6.5 0 0 1 918.599976 872.599976 A 6.5 6.5 0 0 1 925.099976 866.099976 A 6.5 6.5 0 0 1 931.599976 872.599976 Z" class="st1" style="fill: none; stroke: rgb(255, 255, 255); stroke-width: 5; stroke-linecap: round; stroke-linejoin: round; stroke-miterlimit: 10;" transform="matrix(0.720210611820221, 0, 0, 0.720210611820221, -518.9718983552474, -512.8599243164062)"/>
</svg>