<?xml version="1.0" encoding="utf-8"?>
<svg id="master-artboard" viewBox="0 0 200 200" version="1.1" xmlns="http://www.w3.org/2000/svg" x="0px" y="0px" style="enable-background:new 0 0 1400 980;" width="200px" height="200px"><rect id="ee-background" x="0" y="0" width="200" height="200" style="fill: white; fill-opacity: 0; pointer-events: none;"/>


<path class="st1" d="M1236.4,575.5c29.2-6,51.4-10.5,65.5-13.3c14.1-2.8,30.5,1.2-3,22.3c-32,20.2-50.3,29.2-68.2,29.2&#10;&#9;&#9;&#9;c-17.9,0-50.3-18.3-102.1-9.9c-51.7,8.5-78.1-1.4-78.1-51.3c0,0,61.6-9.9,76.7-13.6c15.1-3.8,34.3-25.9,64-13.2&#10;&#9;&#9;&#9;c29.6,12.7,56.5,30.1,56.5,30.1c0,4.7,1.4,24.9-22.6,18.3c-24-6.6-26.3-8-26.3-8" style="fill: none; stroke: rgb(255, 255, 255); stroke-width: 5; stroke-linecap: round; stroke-linejoin: round; stroke-miterlimit: 10;" transform="matrix(0.6877328157424927, 0, 0, 0.6877328157424927, -714.7748413085938, -280.5552583909971)"/><path class="st1" d="M1252.9,489.3c0,11.6-9.4,20.9-20.9,20.9c-11.6,0-20.9-9.4-20.9-20.9c0-11.6,9.4-20.9,20.9-20.9&#10;&#9;&#9;&#9;C1243.5,468.3,1252.9,477.7,1252.9,489.3z" style="fill: none; stroke: rgb(255, 255, 255); stroke-width: 5; stroke-linecap: round; stroke-linejoin: round; stroke-miterlimit: 10;" transform="matrix(0.6877328157424927, 0, 0, 0.6877328157424927, -714.7748413085938, -280.5552583909971)"/><path class="st1" d="M1299.1,531.1c0,11.6-9.4,20.9-20.9,20.9c-11.6,0-20.9-9.4-20.9-20.9c0-11.6,9.4-20.9,20.9-20.9&#10;&#9;&#9;&#9;C1289.7,510.2,1299.1,519.6,1299.1,531.1z" style="fill: none; stroke: rgb(255, 255, 255); stroke-width: 5; stroke-linecap: round; stroke-linejoin: round; stroke-miterlimit: 10;" transform="matrix(0.6877328157424927, 0, 0, 0.6877328157424927, -714.7748413085938, -280.5552583909971)"/><path d="M 1308.300024 477 A 20.9 20.9 0 0 1 1287.400024 497.9 A 20.9 20.9 0 0 1 1266.500025 477 A 20.9 20.9 0 0 1 1287.400024 456.1 A 20.9 20.9 0 0 1 1308.300024 477 Z" class="st1" style="fill: none; stroke: rgb(255, 255, 255); stroke-width: 5; stroke-linecap: round; stroke-linejoin: round; stroke-miterlimit: 10;" transform="matrix(0.6877328157424927, 0, 0, 0.6877328157424927, -714.7748413085938, -280.5552583909971)"/>
</svg>