<?xml version="1.0" encoding="utf-8"?>
<svg id="master-artboard" viewBox="0 0 200 200" version="1.1" xmlns="http://www.w3.org/2000/svg" x="0px" y="0px" style="enable-background:new 0 0 1400 980;" width="200px" height="200px"><rect id="ee-background" x="0" y="0" width="200" height="200" style="fill: white; fill-opacity: 0; pointer-events: none;"/>


<path d="M 103.800003 876.700012 H 149.500004 V 927.600014 H 103.800003 V 876.700012 Z" class="st1" style="fill: none; stroke: rgb(255, 255, 255); stroke-width: 5; stroke-linecap: round; stroke-linejoin: round; stroke-miterlimit: 10;" transform="matrix(0.6850485205650331, 0, 0, 0.6850485205650331, -39.96243051185303, -476.62990525855724)"/><path d="M 149.5 829 H 195.200001 V 927.599998 H 149.5 V 829 Z" class="st1" style="fill: none; stroke: rgb(255, 255, 255); stroke-width: 5; stroke-linecap: round; stroke-linejoin: round; stroke-miterlimit: 10;" transform="matrix(0.6850485205650331, 0, 0, 0.6850485205650331, -39.96243051185303, -476.62990525855724)"/><path d="M 241 808.599976 H 286.700001 V 927.599976 H 241 V 808.599976 Z" class="st1" style="fill: none; stroke: rgb(255, 255, 255); stroke-width: 5; stroke-linecap: round; stroke-linejoin: round; stroke-miterlimit: 10;" transform="matrix(0.6850485205650331, 0, 0, 0.6850485205650331, -39.96243051185303, -476.62990525855724)"/><path d="M 195.300003 856.299988 H 241.000004 V 927.699989 H 195.300003 V 856.299988 Z" class="st1" style="fill: none; stroke: rgb(255, 255, 255); stroke-width: 5; stroke-linecap: round; stroke-linejoin: round; stroke-miterlimit: 10;" transform="matrix(0.6850485205650331, 0, 0, 0.6850485205650331, -39.96243051185303, -476.62990525855724)"/><path d="M 97.099998 834.799988 L 171 757.5 L 214.600006 801.099976 L 289.200012 726.5" class="st1" style="fill: none; stroke: rgb(255, 255, 255); stroke-width: 5; stroke-linecap: round; stroke-linejoin: round; stroke-miterlimit: 10;" transform="matrix(0.6850485205650331, 0, 0, 0.6850485205650331, -39.96243051185303, -476.62990525855724)"/><path d="M 244.399994 726.5 L 289.200012 726.5" class="st1" style="fill: none; stroke: rgb(255, 255, 255); stroke-width: 5; stroke-linecap: round; stroke-linejoin: round; stroke-miterlimit: 10;" transform="matrix(0.6850485205650331, 0, 0, 0.6850485205650331, -39.96243051185303, -476.62990525855724)"/><path d="M 289.200012 771.299988 L 289.200012 726.5" class="st1" style="fill: none; stroke: rgb(255, 255, 255); stroke-width: 5; stroke-linecap: round; stroke-linejoin: round; stroke-miterlimit: 10;" transform="matrix(0.6850485205650331, 0, 0, 0.6850485205650331, -39.96243051185303, -476.62990525855724)"/>
</svg>